<?xml version="1.0" encoding="UTF-8"?>
<svg xmlns="http://www.w3.org/2000/svg" xmlns:xlink="http://www.w3.org/1999/xlink" width="595pt" height="314.4pt" viewBox="0 0 595 314.4" version="1.1">
<defs>
<clipPath id="clip1">
  <path d="M 0 0 L 595 0 L 595 314.398438 L 0 314.398438 Z M 0 0 "/>
</clipPath>
</defs>
<g id="surface1">
<g clip-path="url(#clip1)" clip-rule="nonzero">
<path style=" stroke:none;fill-rule:evenodd;fill:rgb(13.719177%,21.556091%,94.53125%);fill-opacity:1;" d="M 0 314.085938 L 670.132813 314.085938 L 670.132813 0.203125 L 0 0.203125 Z M 0 314.085938 "/>
<path style="fill:none;stroke-width:5.669;stroke-linecap:butt;stroke-linejoin:miter;stroke:rgb(10.594177%,9.812927%,9.423828%);stroke-opacity:1;stroke-miterlimit:4;" d="M -3.828125 3.140625 L 6701.328125 3.140625 L 6701.328125 3141.96875 L -3.828125 3141.96875 Z M -3.828125 3.140625 " transform="matrix(0.1,0,0,-0.1,0,314.4)"/>
</g>
<path style=" stroke:none;fill-rule:evenodd;fill:rgb(100%,100%,100%);fill-opacity:1;" d="M 101.402344 60.738281 C 154.257813 60.738281 197.109375 103.585938 197.113281 156.4375 L 143.542969 156.4375 C 143.539063 133.175781 124.667969 114.316406 101.402344 114.316406 C 78.140625 114.316406 59.269531 133.175781 59.265625 156.4375 L 5.691406 156.4375 C 5.699219 103.585938 48.546875 60.738281 101.402344 60.738281 Z M 142.589844 176.382813 C 139.183594 176.382813 133.367188 177.710938 129.644531 177.722656 L 73.160156 177.722656 C 69.4375 177.710938 63.625 176.382813 60.214844 176.382813 L 7.769531 176.382813 C 8.054688 177.71875 8.367188 179.046875 8.703125 180.363281 L 60.265625 180.363281 C 63.625 180.363281 68.855469 179.023438 73.160156 179.023438 L 129.644531 179.023438 C 133.949219 179.023438 139.183594 180.363281 142.539063 180.363281 L 194.101563 180.363281 C 194.441406 179.046875 194.75 177.71875 195.035156 176.382813 Z M 136.820313 187.355469 C 133.472656 187.355469 127.492188 189.273438 123.902344 189.234375 L 78.902344 189.234375 C 75.3125 189.273438 69.332031 187.355469 65.984375 187.355469 L 10.792969 187.355469 C 11.359375 189.019531 11.96875 190.660156 12.625 192.28125 L 65.984375 192.28125 C 69.332031 192.28125 74.3125 190.535156 78.902344 190.535156 L 123.902344 190.535156 C 128.492188 190.535156 133.472656 192.28125 136.820313 192.28125 L 190.179688 192.28125 C 190.832031 190.660156 191.445313 189.019531 192.011719 187.355469 Z M 176.148438 216.230469 C 177.929688 214.007813 179.613281 211.703125 181.195313 209.324219 L 21.609375 209.324219 C 23.191406 211.703125 24.871094 214.003906 26.65625 216.230469 Z M 38.050781 228.191406 L 164.757813 228.191406 C 167.535156 225.730469 170.203125 223.089844 172.683594 220.316406 L 30.121094 220.320313 C 32.589844 223.085938 35.273438 225.734375 38.050781 228.195313 Z M 59.828125 242.683594 C 72.789063 248.914063 87.019531 252.160156 101.402344 252.160156 C 115.785156 252.160156 130.015625 248.914063 142.96875 242.683594 Z M 127.730469 198.351563 C 123.460938 198.351563 116.753906 200.628906 110.203125 200.660156 L 92.601563 200.660156 C 86.050781 200.628906 79.34375 198.351563 75.074219 198.351563 L 15.328125 198.351563 C 16.3125 200.367188 17.363281 202.34375 18.480469 204.277344 L 77.839844 204.277344 C 82.085938 204.273438 86.050781 201.964844 92.601563 201.964844 L 110.203125 201.964844 C 116.753906 201.964844 120.722656 204.273438 124.96875 204.277344 L 184.324219 204.277344 C 185.441406 202.34375 186.492188 200.367188 187.476563 198.351563 Z M 134.914063 166.003906 L 67.875 166.003906 C 64.050781 166.003906 60.800781 164.835938 58.382813 164.863281 L 6.105469 164.863281 C 6.199219 165.867188 6.363281 167.390625 6.488281 168.386719 L 58.363281 168.386719 C 60.757813 168.359375 64.058594 167.304688 67.886719 167.304688 L 134.902344 167.304688 C 138.730469 167.304688 142.03125 168.359375 144.425781 168.382813 L 196.304688 168.382813 C 196.425781 167.390625 196.59375 165.863281 196.683594 164.863281 L 144.40625 164.863281 C 141.988281 164.835938 138.742188 166.003906 134.914063 166.003906 Z M 148.671875 239.691406 C 152.886719 237.285156 156.9375 234.554688 160.746094 231.546875 L 42.058594 231.546875 C 45.851563 234.542969 49.925781 237.304688 54.132813 239.695313 Z M 148.671875 239.691406 "/>
<path style=" stroke:none;fill-rule:evenodd;fill:rgb(100%,100%,100%);fill-opacity:1;" d="M 221.871094 121.128906 C 221.871094 105.644531 232.4375 94.421875 247.40625 94.421875 C 258.261719 94.421875 266.847656 99.921875 270.296875 110.414063 L 261.710938 113.203125 C 259.804688 106.96875 255.257813 102.710938 247.476563 102.710938 C 237.792969 102.710938 230.824219 110.710938 230.824219 121.199219 C 230.824219 132.207031 238.085938 139.617188 247.699219 139.617188 C 255.621094 139.617188 259.878906 135.214844 261.636719 130.078125 L 270.078125 132.867188 C 266.480469 142.257813 258.996094 147.832031 247.550781 147.832031 C 232.65625 147.832031 221.871094 137.339844 221.871094 121.128906 Z M 221.871094 121.128906 "/>
<path style=" stroke:none;fill-rule:evenodd;fill:rgb(100%,100%,100%);fill-opacity:1;" d="M 297.257813 134.039063 L 297.257813 129.785156 L 289.992188 130.886719 C 285.441406 131.546875 283.390625 133.085938 283.390625 136.09375 C 283.390625 138.882813 285.8125 140.789063 289.847656 140.789063 C 293.808594 140.789063 297.257813 138.441406 297.257813 134.039063 Z M 274.953125 136.609375 C 274.953125 131.253906 277.738281 126.117188 289.40625 124.5 L 297.257813 123.402344 L 297.257813 122.960938 C 297.257813 118.78125 295.203125 116.285156 290.503906 116.285156 C 285.882813 116.285156 283.828125 118.484375 283.242188 122.226563 L 275.464844 120.320313 C 277.445313 113.058594 282.070313 109.242188 290.800781 109.242188 C 298.945313 109.242188 306.058594 113.277344 306.058594 122.8125 L 306.058594 146.882813 L 298.652344 146.878906 L 297.695313 143.578125 C 296.230469 145.632813 293.367188 147.90625 287.496094 147.90625 C 280.601563 147.90625 274.953125 143.578125 274.953125 136.609375 Z M 274.953125 136.609375 "/>
<path style=" stroke:none;fill-rule:evenodd;fill:rgb(100%,100%,100%);fill-opacity:1;" d="M 314.132813 110.269531 L 321.394531 110.269531 L 322.644531 114.671875 C 324.917969 111.660156 328.367188 109.242188 333.796875 109.242188 C 342.085938 109.242188 346.929688 114.011719 346.929688 124.722656 L 346.929688 146.878906 L 338.125 146.878906 L 338.125 125.894531 C 338.125 119.441406 335.117188 117.386719 331.007813 117.386719 C 326.53125 117.386719 322.9375 120.539063 322.9375 126.777344 L 322.9375 146.878906 L 314.132813 146.878906 Z M 314.132813 110.269531 "/>
<path style=" stroke:none;fill-rule:evenodd;fill:rgb(100%,100%,100%);fill-opacity:1;" d="M 375.898438 134.039063 L 375.898438 129.785156 L 368.636719 130.886719 C 364.085938 131.546875 362.035156 133.085938 362.035156 136.09375 C 362.035156 138.882813 364.453125 140.789063 368.488281 140.789063 C 372.453125 140.789063 375.898438 138.441406 375.898438 134.039063 Z M 353.59375 136.609375 C 353.59375 131.253906 356.382813 126.117188 368.050781 124.5 L 375.898438 123.402344 L 375.898438 122.960938 C 375.898438 118.78125 373.84375 116.285156 369.148438 116.285156 C 364.527344 116.285156 362.472656 118.484375 361.882813 122.226563 L 354.109375 120.320313 C 356.089844 113.058594 360.710938 109.242188 369.441406 109.242188 C 377.585938 109.242188 384.707031 113.277344 384.707031 122.8125 L 384.707031 146.878906 L 377.292969 146.878906 L 376.339844 143.578125 C 374.871094 145.632813 372.011719 147.90625 366.140625 147.90625 C 359.246094 147.90625 353.59375 143.578125 353.59375 136.609375 Z M 353.59375 136.609375 "/>
<path style=" stroke:none;fill-rule:evenodd;fill:rgb(100%,100%,100%);fill-opacity:1;" d="M 393.144531 146.878906 L 401.945313 146.878906 L 401.945313 95.519531 L 393.144531 95.519531 Z M 393.144531 146.878906 "/>
<path style=" stroke:none;fill-rule:evenodd;fill:rgb(100%,100%,100%);fill-opacity:1;" d="M 449.363281 123.105469 L 441.808594 123.105469 C 436.890625 123.105469 432.78125 126.410156 432.78125 131.546875 C 432.78125 136.683594 436.671875 139.835938 441.292969 139.835938 C 445.695313 139.835938 449.363281 136.683594 449.363281 131.546875 Z M 462.421875 123.179688 L 457.652344 123.179688 L 457.652344 131.621094 C 457.652344 141.304688 450.316406 147.90625 441.292969 147.90625 C 431.164063 147.90625 423.828125 141.449219 423.828125 131.691406 C 423.828125 131.617188 423.828125 131.53125 423.828125 131.453125 C 423.828125 126.429688 426.40625 121.753906 430.65625 119.074219 C 427.9375 116.542969 426.398438 113 426.398438 109.289063 C 426.398438 109.226563 426.398438 109.15625 426.398438 109.09375 C 426.398438 100.511719 433.367188 94.496094 442.171875 94.496094 C 450.464844 94.496094 455.527344 98.96875 456.917969 105.425781 L 449.144531 107.40625 C 448.410156 104.105469 445.546875 102.125 442.171875 102.125 C 437.988281 102.125 434.761719 104.839844 434.761719 109.019531 C 434.761719 113.277344 437.988281 115.917969 442.027344 115.917969 L 449.363281 115.917969 L 449.363281 111.515625 L 457.652344 111.515625 L 457.652344 115.992188 L 462.421875 115.992188 Z M 462.421875 123.179688 "/>
<path style=" stroke:none;fill-rule:evenodd;fill:rgb(100%,100%,100%);fill-opacity:1;" d="M 244.078125 188.277344 C 249.433594 188.277344 252.515625 185.195313 252.515625 180.574219 C 252.515625 175.804688 249.289063 172.945313 243.933594 172.945313 L 234.832031 172.945313 L 234.832031 188.277344 Z M 225.882813 164.871094 L 244.664063 164.871094 C 255.449219 164.871094 261.394531 171.550781 261.394531 180.132813 C 261.394531 188.351563 256.695313 193.121094 251.34375 194.882813 L 263.59375 216.234375 L 253.691406 216.234375 L 242.464844 196.128906 L 234.832031 196.128906 L 234.832031 216.230469 L 225.882813 216.234375 Z M 225.882813 164.871094 "/>
<path style=" stroke:none;fill-rule:evenodd;fill:rgb(100%,100%,100%);fill-opacity:1;" d="M 270.417969 179.621094 L 279.222656 179.621094 L 279.222656 216.234375 L 270.417969 216.234375 Z M 269.539063 169.421875 C 269.539063 169.410156 269.539063 169.394531 269.539063 169.378906 C 269.539063 166.539063 271.835938 164.230469 274.675781 164.210938 C 274.699219 164.210938 274.726563 164.210938 274.75 164.210938 C 277.625 164.210938 279.960938 166.546875 279.960938 169.421875 C 279.960938 172.296875 277.625 174.632813 274.75 174.632813 C 274.726563 174.632813 274.699219 174.628906 274.675781 174.628906 C 271.835938 174.613281 269.539063 172.304688 269.539063 169.464844 C 269.539063 169.449219 269.539063 169.4375 269.539063 169.421875 Z M 269.539063 169.421875 "/>
<path style=" stroke:none;fill-rule:evenodd;fill:rgb(100%,100%,100%);fill-opacity:1;" d="M 321.878906 179.621094 L 308.011719 216.230469 L 298.765625 216.230469 L 284.898438 179.621094 L 293.921875 179.621094 L 303.386719 206.253906 L 312.855469 179.621094 Z M 321.878906 179.621094 "/>
<path style=" stroke:none;fill-rule:evenodd;fill:rgb(100%,100%,100%);fill-opacity:1;" d="M 341.105469 185.859375 C 335.160156 185.859375 331.859375 189.890625 331.054688 194.074219 L 350.570313 194.074219 C 350.351563 190.773438 347.414063 185.859375 341.105469 185.859375 Z M 330.980469 200.824219 C 331.460938 206.019531 335.824219 209.996094 341.046875 209.996094 C 341.066406 209.996094 341.085938 209.996094 341.105469 209.996094 C 346.242188 209.996094 349.175781 206.914063 350.054688 204.421875 L 357.46875 206.695313 C 355.339844 212.5625 350.058594 217.257813 341.105469 217.257813 C 330.613281 217.257813 322.542969 209.191406 322.542969 197.890625 C 322.542969 186.8125 330.613281 178.59375 341.03125 178.59375 C 351.671875 178.59375 358.347656 186.296875 358.347656 197.449219 L 358.347656 200.824219 Z M 330.980469 200.824219 "/>
<path style=" stroke:none;fill-rule:evenodd;fill:rgb(100%,100%,100%);fill-opacity:1;" d="M 365.171875 179.621094 L 372.4375 179.621094 L 373.683594 183.875 C 375.558594 180.609375 379.042969 178.59375 382.8125 178.59375 C 382.851563 178.59375 382.890625 178.59375 382.929688 178.59375 C 385.863281 178.59375 388.0625 179.472656 389.238281 180.351563 L 386.085938 188.058594 C 385.351563 187.472656 383.808594 186.808594 381.679688 186.808594 C 377.425781 186.808594 373.976563 190.183594 373.976563 196.273438 L 373.976563 216.230469 L 365.171875 216.230469 Z M 365.171875 179.621094 "/>
<path style=" stroke:none;fill-rule:evenodd;fill:rgb(100%,100%,100%);fill-opacity:1;" d="M 414.238281 173.164063 L 399.417969 173.164063 L 399.417969 164.875 L 438.011719 164.875 L 438.011719 173.164063 L 423.191406 173.164063 L 423.191406 216.234375 L 414.238281 216.234375 Z M 414.238281 173.164063 "/>
<path style=" stroke:none;fill-rule:evenodd;fill:rgb(100%,100%,100%);fill-opacity:1;" d="M 439.367188 179.621094 L 446.628906 179.621094 L 447.878906 183.875 C 449.753906 180.609375 453.234375 178.59375 457.003906 178.59375 C 457.042969 178.59375 457.085938 178.59375 457.121094 178.59375 C 460.054688 178.59375 462.257813 179.472656 463.429688 180.355469 L 460.277344 188.058594 C 459.542969 187.472656 458 186.808594 455.871094 186.808594 C 451.617188 186.808594 448.167969 190.1875 448.167969 196.273438 L 448.167969 216.230469 L 439.367188 216.230469 Z M 439.367188 179.621094 "/>
<path style=" stroke:none;fill-rule:evenodd;fill:rgb(100%,100%,100%);fill-opacity:1;" d="M 499.542969 216.234375 L 492.28125 216.234375 L 491.03125 211.832031 C 488.757813 214.839844 485.308594 217.257813 479.878906 217.257813 C 471.515625 217.257813 466.746094 212.417969 466.746094 201.703125 L 466.746094 179.621094 L 475.550781 179.621094 L 475.550781 200.53125 C 475.550781 207.0625 478.558594 209.042969 482.667969 209.042969 C 487.144531 209.042969 490.738281 205.886719 490.738281 199.652344 L 490.738281 179.621094 L 499.542969 179.621094 Z M 499.542969 216.234375 "/>
<path style=" stroke:none;fill-rule:evenodd;fill:rgb(100%,100%,100%);fill-opacity:1;" d="M 506.367188 206.328125 L 514.144531 203.835938 C 515.023438 207.0625 516.929688 209.921875 521.628906 209.921875 C 525.589844 209.921875 528.15625 208.382813 528.15625 205.742188 C 528.15625 203.90625 526.984375 202.367188 521.40625 201.410156 C 513.777344 200.019531 507.394531 197.667969 507.394531 190.039063 C 507.394531 183.730469 512.75 178.59375 521.628906 178.59375 C 528.964844 178.59375 534.027344 182.484375 535.566406 189.085938 L 527.863281 191.285156 C 527.203125 188.644531 525.664063 185.929688 521.628906 185.929688 C 517.445313 185.929688 515.609375 187.765625 515.609375 189.671875 C 515.609375 192.167969 518.253906 193.046875 522.949219 193.929688 C 531.09375 195.394531 536.449219 198.257813 536.449219 205.59375 C 536.449219 212.125 530.652344 217.261719 521.628906 217.261719 C 513.628906 217.261719 508.199219 213.152344 506.367188 206.328125 Z M 506.367188 206.328125 "/>
<path style=" stroke:none;fill-rule:evenodd;fill:rgb(100%,100%,100%);fill-opacity:1;" d="M 545.917969 206.402344 L 545.917969 187.324219 L 539.609375 187.324219 L 539.609375 179.621094 L 545.917969 179.621094 L 545.917969 170.082031 L 554.722656 170.082031 L 554.722656 179.621094 L 564.042969 179.621094 L 564.042969 187.324219 L 554.722656 187.324219 L 554.722656 205.152344 C 554.722656 207.867188 555.972656 209.042969 558.171875 209.042969 C 558.199219 209.042969 558.226563 209.042969 558.253906 209.042969 C 559.46875 209.042969 560.640625 208.597656 561.546875 207.792969 L 565.214844 214.03125 C 564.191406 215.277344 561.328125 217.257813 556.265625 217.257813 C 550.613281 217.257813 545.917969 213.589844 545.917969 206.402344 Z M 545.917969 206.402344 "/>
</g>
</svg>
